<svg width="99" height="135" viewBox="0 0 99 135" fill="none" xmlns="http://www.w3.org/2000/svg">
<g filter="url(#filter0_d_115_1374)">
<rect width="90" height="126.458" rx="10" transform="matrix(0.999989 0.00459995 -0.00414037 0.999991 4.52368 0)" fill="#9B9B9B"/>
<rect width="73.5548" height="109.937" rx="10" transform="matrix(0.999989 0.00459995 -0.00414037 0.999991 12.8621 8.14859)" fill="#D0D0D0"/>
<path d="M39.9932 31.5996L46.5931 31.63L46.5877 32.95L39.9877 32.9196L39.9932 31.5996ZM41.0322 17.3443L46.3122 17.3686L46.3068 18.6685L41.0268 18.6443L41.0322 17.3443ZM39.4346 26.437L47.2945 26.4732L47.2649 33.6131L45.8249 33.6065L45.8491 27.7665L40.8092 27.7434L40.7847 33.6433L39.4048 33.637L39.4346 26.437ZM45.7722 17.3661L46.0322 17.3673L46.3124 17.3086L47.2708 17.713C45.7104 22.6258 42.0369 25.889 38.2302 27.4915C38.0516 27.1507 37.6538 26.6288 37.3549 26.3474C40.9005 25.0037 44.4538 21.8001 45.7711 17.6261L45.7722 17.3661ZM41.3808 15.2859L42.8193 15.6325C41.9081 18.3483 40.4176 20.8815 38.7507 22.5338C38.5118 22.2727 37.9338 21.7901 37.5747 21.5684C39.2209 20.076 40.6106 17.7423 41.3808 15.2859ZM40.9688 18.164C42.117 21.0293 44.7827 24.4816 48.8762 26.0604C48.555 26.339 48.1327 26.917 47.9311 27.2961C43.8185 25.4972 41.1935 21.8651 39.9854 18.9795L40.9688 18.164ZM31.2041 24.1191L32.4641 24.1249L32.434 31.3849L31.174 31.3791L31.2041 24.1191ZM32.5719 17.4054L32.5573 20.9253L36.3173 20.9426L36.3319 17.4226L32.5719 17.4054ZM31.2374 16.0792L37.7373 16.1091L37.7118 22.269L31.2119 22.2391L31.2374 16.0792ZM34.0346 21.5921L35.3946 21.5984L35.3567 30.7383L33.9967 30.732L34.0346 21.5921ZM30.1347 31.2143C32.1163 30.8234 35.1192 30.1372 38.002 29.4705L38.1364 30.8111C35.3937 31.4785 32.5108 32.1652 30.4087 32.6756L30.1347 31.2143ZM34.4998 25.1543L37.8798 25.1698L37.8743 26.5098L34.4943 26.4943L34.4998 25.1543ZM50.4701 22.7077L68.4099 22.7903L68.4038 24.2702L50.464 24.1877L50.4701 22.7077ZM59.1686 18.2477L66.2686 18.2804L66.2625 19.7404L59.1626 19.7077L59.1686 18.2477ZM58.2806 15.3636L59.8406 15.3708L59.8071 23.4507L58.2471 23.4435L58.2806 15.3636ZM58.2459 23.7435L59.8059 23.7507L59.7644 33.7706L58.2044 33.7634L58.2459 23.7435ZM59.352 27.0886L60.097 25.8921C62.2946 26.4822 65.3304 27.4961 66.9472 28.2836L66.1616 29.62C64.6248 28.8529 61.6094 27.739 59.352 27.0886Z" fill="#414141"/>
<rect x="0.497924" y="0.502296" width="89" height="125.458" transform="matrix(0.999989 0.00459995 -0.00414037 0.999991 4.52577 -0.00228609)" stroke="black" shape-rendering="crispEdges"/>
</g>
<defs>
<filter id="filter0_d_115_1374" x="0" y="0" width="98.5227" height="134.871" filterUnits="userSpaceOnUse" color-interpolation-filters="sRGB">
<feFlood flood-opacity="0" result="BackgroundImageFix"/>
<feColorMatrix in="SourceAlpha" type="matrix" values="0 0 0 0 0 0 0 0 0 0 0 0 0 0 0 0 0 0 127 0" result="hardAlpha"/>
<feOffset dy="4"/>
<feGaussianBlur stdDeviation="2"/>
<feComposite in2="hardAlpha" operator="out"/>
<feColorMatrix type="matrix" values="0 0 0 0 0 0 0 0 0 0 0 0 0 0 0 0 0 0 0.25 0"/>
<feBlend mode="normal" in2="BackgroundImageFix" result="effect1_dropShadow_115_1374"/>
<feBlend mode="normal" in="SourceGraphic" in2="effect1_dropShadow_115_1374" result="shape"/>
</filter>
</defs>
</svg>
